<svg width="0" height="0" class="hidden">
  <symbol fill="none" xmlns="http://www.w3.org/2000/svg" viewBox="0 0 32 11" id="icon-hamburger">
    <path fill-rule="evenodd" clip-rule="evenodd" d="M14 7H18V11H14V7ZM7 7H11V11H7V7ZM0 7H4V11H0V7ZM14 0H18V4H14V0ZM7 0H11V4H7V0ZM0 0H4V4H0V0Z" fill="var(--hamburger-color, white)"></path>
    <path d="M18 7H14V11H18V7Z" fill="var(--hamburger-color, white)"></path>
    <path d="M11 7H7V11H11V7Z" fill="var(--hamburger-color, white)"></path>
    <path d="M18 0H14V4H18V0Z" fill="var(--hamburger-color, white)"></path>
    <path d="M11 0H7V4H11V0Z" fill="var(--hamburger-color, white)"></path>
    <path d="M32 7H28V11H32V7Z" fill="var(--hamburger-color, white)"></path>
    <path d="M25 7H21V11H25V7Z" fill="var(--hamburger-color, white)"></path>
    <path d="M32 0H28V4H32V0Z" fill="var(--hamburger-color, white)"></path>
    <path d="M25 0H21V4H25V0Z" fill="var(--hamburger-color, white)"></path>
  </symbol>
</svg>