<svg width="0" height="0" class="hidden">
  <symbol fill="none" xmlns="http://www.w3.org/2000/svg" viewBox="0 0 13 13" id="icon-plus--silver">
    <path d="M6.5 0C5.21442 0 3.95771 0.381218 2.8888 1.09545C1.81988 1.80968 0.986755 2.82484 0.494786 4.01256C0.00281635 5.20028 -0.125905 6.50721 0.124899 7.76809C0.375702 9.02896 0.994767 10.1872 1.90381 11.0962C2.81285 12.0052 3.97104 12.6243 5.23191 12.8751C6.49279 13.1259 7.79972 12.9972 8.98744 12.5052C10.1752 12.0132 11.1903 11.1801 11.9046 10.1112C12.6188 9.04228 13 7.78558 13 6.5C12.9978 4.77675 12.3123 3.1247 11.0938 1.90618C9.8753 0.68766 8.22325 0.00215003 6.5 0ZM9 7H7V9C7 9.13261 6.94732 9.25978 6.85356 9.35355C6.75979 9.44732 6.63261 9.5 6.5 9.5C6.36739 9.5 6.24022 9.44732 6.14645 9.35355C6.05268 9.25978 6 9.13261 6 9V7H4C3.86739 7 3.74022 6.94732 3.64645 6.85355C3.55268 6.75978 3.5 6.63261 3.5 6.5C3.5 6.36739 3.55268 6.24021 3.64645 6.14645C3.74022 6.05268 3.86739 6 4 6H6V4C6 3.86739 6.05268 3.74021 6.14645 3.64645C6.24022 3.55268 6.36739 3.5 6.5 3.5C6.63261 3.5 6.75979 3.55268 6.85356 3.64645C6.94732 3.74021 7 3.86739 7 4V6H9C9.13261 6 9.25979 6.05268 9.35355 6.14645C9.44732 6.24021 9.5 6.36739 9.5 6.5C9.5 6.63261 9.44732 6.75978 9.35355 6.85355C9.25979 6.94732 9.13261 7 9 7Z" fill="var(--plus-color, #999)"></path>
  </symbol>
</svg>